<svg width="33" height="23" viewBox="0 0 33 23" fill="none" xmlns="http://www.w3.org/2000/svg">
<path d="M26.9157 9.30802C26.5506 9.20584 26.1701 9.41254 26.0657 9.76948C25.9613 10.1264 26.1726 10.4986 26.5376 10.6006C29.6756 11.4781 31.625 12.7508 31.625 13.9222C31.625 14.7794 30.5587 15.7202 28.6995 16.5036C26.6541 17.3653 23.7524 17.9958 20.5258 18.2799L17.7096 18.2425C17.7063 18.2425 17.7032 18.2425 17.7 18.2425C17.3246 18.2425 17.0179 18.5375 17.0128 18.9056C17.0076 19.2768 17.3113 19.5818 17.6909 19.5868L20.5426 19.6246C20.5457 19.6246 20.5488 19.6247 20.5519 19.6247C20.5723 19.6247 20.5927 19.6238 20.613 19.622C23.9952 19.3272 27.0603 18.6582 29.2437 17.7383C32.3483 16.4301 33 14.941 33 13.9222C33 12.0438 30.8392 10.4051 26.9157 9.30802Z" fill="#271A45"/>
<path d="M6.66046 8.54225C6.28082 8.54225 5.97296 8.8432 5.97296 9.21445C5.97296 9.58571 6.28082 9.88666 6.66046 9.88666H9.48753V12.6651H6.66046C6.28082 12.6651 5.97296 12.966 5.97296 13.3373C5.97296 13.7085 6.28082 14.0095 6.66046 14.0095H10.175C10.5547 14.0095 10.8625 13.7085 10.8625 13.3373V5.09163C10.8625 4.72037 10.5547 4.41942 10.175 4.41942H6.66046C6.28082 4.41942 5.97296 4.72037 5.97296 5.09163C5.97296 5.46288 6.28082 5.76383 6.66046 5.76383H9.48753V8.54225H6.66046Z" fill="#271A45"/>
<path d="M12.9854 14.0096H17.2022C17.5818 14.0096 17.8897 13.7086 17.8897 13.3374V9.21452C17.8897 8.84326 17.5819 8.54232 17.2022 8.54232H13.6729V5.76383H16.5C16.8797 5.76383 17.1875 5.46288 17.1875 5.09163C17.1875 4.72037 16.8797 4.41942 16.5 4.41942H12.9854C12.6057 4.41942 12.2979 4.72037 12.2979 5.09163V13.3374C12.2979 13.7086 12.6057 14.0096 12.9854 14.0096ZM13.6729 9.88666H16.5147V12.6651H13.6729V9.88666Z" fill="#271A45"/>
<path d="M20.0146 14.0096H24.2313C24.6109 14.0096 24.9188 13.7086 24.9188 13.3374V5.09163C24.9188 4.72037 24.6109 4.41942 24.2313 4.41942H20.0146C19.635 4.41942 19.3271 4.72037 19.3271 5.09163V13.3374C19.3271 13.7086 19.635 14.0096 20.0146 14.0096ZM20.7021 5.76383H23.5438V12.6651H20.7021V5.76383Z" fill="#271A45"/>
<path d="M12.5714 15.6813C12.3262 15.3979 11.8924 15.3625 11.6025 15.6023C11.3126 15.8421 11.2764 16.2661 11.5216 16.5496L13.0593 18.3269C9.81454 18.085 6.87582 17.5035 4.71508 16.6699C2.59242 15.8509 1.375 14.8495 1.375 13.9222C1.375 12.8454 3.00685 11.6851 5.74014 10.8182C6.10136 10.7037 6.29915 10.3245 6.182 9.97136C6.06492 9.61825 5.67703 9.42486 5.31596 9.53933C3.72584 10.0436 2.46489 10.6436 1.56805 11.3224C0.527588 12.1102 0 12.9848 0 13.9222C0 15.4752 1.45599 16.8578 4.21039 17.9204C6.44916 18.7842 9.45099 19.3905 12.7509 19.6519L11.3798 21.1377C11.1254 21.4133 11.1477 21.8384 11.4296 22.0871C11.5611 22.2031 11.7258 22.2603 11.89 22.2603C12.0777 22.2603 12.2649 22.1854 12.4006 22.0384L14.9022 19.3277C15.0162 19.2042 15.0793 19.0438 15.0793 18.8774V18.826C15.0793 18.6671 15.0217 18.5133 14.9167 18.3919L12.5714 15.6813Z" fill="#271A45"/>
<path d="M26.2222 4.38487H29.0327C29.4123 4.38487 29.7202 4.08392 29.7202 3.71267V0.963754C29.7202 0.592495 29.4123 0.29155 29.0327 0.29155H26.2222C25.8426 0.29155 25.5347 0.592495 25.5347 0.963754V3.71267C25.5347 4.08392 25.8426 4.38487 26.2222 4.38487ZM26.9097 1.63596H28.3452V3.04046H26.9097V1.63596Z" fill="#271A45"/>
</svg>
